<?xml version="1.0" encoding="utf-8"?>
<!-- Generator: Adobe Illustrator 18.1.0, SVG Export Plug-In . SVG Version: 6.00 Build 0)  -->
<!DOCTYPE svg PUBLIC "-//W3C//DTD SVG 1.1//EN" "http://www.w3.org/Graphics/SVG/1.1/DTD/svg11.dtd">
<svg version="1.1" id="Arrow_1_" xmlns="http://www.w3.org/2000/svg" xmlns:xlink="http://www.w3.org/1999/xlink" x="0px" y="0px"
	 width="500px" height="500px" viewBox="0 0 500 500" enable-background="new 0 0 500 500" xml:space="preserve">
  <metadata>
    <?xpacket begin="﻿" id="W5M0MpCehiHzreSzNTczkc9d"?>
    <x:xmpmeta xmlns:x="adobe:ns:meta/" x:xmptk="Adobe XMP Core 5.6-c011 79.156380, 2014/06/19-23:40:37        ">
     <rdf:RDF xmlns:rdf="http://www.w3.org/1999/02/22-rdf-syntax-ns#">
      <rdf:Description rdf:about=""
        xmlns:xmpMM="http://ns.adobe.com/xap/1.0/mm/"
        xmlns:stEvt="http://ns.adobe.com/xap/1.0/sType/ResourceEvent#"
        xmlns:xmp="http://ns.adobe.com/xap/1.0/"
        xmlns:xmpRights="http://ns.adobe.com/xap/1.0/rights/"
        xmlns:dc="http://purl.org/dc/elements/1.1/"
       xmpMM:DocumentID="xmp.did:26a5f075031c9d940075d3761e96fffe"
       xmpMM:OriginalDocumentID="xmp.did:26a5f075031c9d940075d3761e96fffe"
       xmpMM:InstanceID="xmp.iid:26a5f075031c9d940075d3761e96fffe"
       xmp:ModifyDate="2015-04-24T14:27:41+02:00"
       xmp:MetadataDate="2015-04-24T14:27:41+02:00"
       xmpRights:Marked="True"
       xmpRights:WebStatement="http://www.adobe.com/legal/general-terms.html">
       <xmpMM:History>
        <rdf:Seq>
         <rdf:li
          stEvt:action="saved"
          stEvt:instanceID="xmp.iid:26a5f075031c9d940075d3761e96fffe"
          stEvt:when="2015-04-24T14:27:41+02:00"/>
        </rdf:Seq>
       </xmpMM:History>
       <xmpRights:UsageTerms>
        <rdf:Alt>
         <rdf:li xml:lang="x-default">This work is licensed under the Adobe General Terms of Use http://www.adobe.com/legal/general-terms.html.</rdf:li>
        </rdf:Alt>
       </xmpRights:UsageTerms>
       <dc:publisher>
        <rdf:Bag>
         <rdf:li>Adobe Systems Incorporated</rdf:li>
        </rdf:Bag>
       </dc:publisher>
      </rdf:Description>
     </rdf:RDF>
    </x:xmpmeta>
    <?xpacket end="r"?>
  </metadata>
<g>
	<path fill="#1C1B1A" d="M435.7,500H64.3C28.8,500,0,471.2,0,435.7V64.3C0,28.8,28.8,0,64.3,0h371.4C471.2,0,500,28.8,500,64.3
		v371.4C500,471.2,471.2,500,435.7,500z M64.3,42.9c-11.8,0-21.4,9.6-21.4,21.4v371.4c0,11.8,9.6,21.4,21.4,21.4h371.4
		c11.8,0,21.4-9.6,21.4-21.4V64.3c0-11.8-9.6-21.4-21.4-21.4H64.3z"/>
	<path fill="#1C1B1A" d="M418.9,169.4c-3.1-4.3-8.2-6.9-13.5-6.9h-170c-9.2,0-16.7,7.5-16.7,16.7c0,9.2,7.5,16.7,16.7,16.7h147.1
		l-9,27.9H183.9l-35.8-84.5c-2.6-6.2-8.7-10.2-15.4-10.2H77.2c-9.2,0-16.7,7.5-16.7,16.7c0,9.2,7.5,16.7,16.7,16.7h44.5l64.5,152.3
		c2.6,6.2,8.7,10.2,15.4,10.2h162.3c7.3,0,13.7-4.7,15.9-11.6l41.5-129.1C422.9,179.3,422,173.7,418.9,169.4z"/>
	<path fill="#1C1B1A" d="M218.4,347.2c-19,0-34.5,15.4-34.5,34.5c0,19,15.4,34.5,34.5,34.5c19,0,34.5-15.4,34.5-34.5
		C252.8,362.6,237.4,347.2,218.4,347.2z"/>
	<path fill="#1C1B1A" d="M352.7,347.2c-19,0-34.5,15.4-34.5,34.5c0,19,15.4,34.5,34.5,34.5s34.5-15.4,34.5-34.5
		C387.2,362.6,371.8,347.2,352.7,347.2z"/>
</g>
</svg>
