<?xml version="1.0" encoding="utf-8"?>
<!-- Generator: Adobe Illustrator 18.0.0, SVG Export Plug-In . SVG Version: 6.00 Build 0)  -->
<!DOCTYPE svg PUBLIC "-//W3C//DTD SVG 1.1//EN" "http://www.w3.org/Graphics/SVG/1.1/DTD/svg11.dtd">
<svg version="1.1" id="Arrow_1_" xmlns="http://www.w3.org/2000/svg" xmlns:xlink="http://www.w3.org/1999/xlink" x="0px" y="0px"
	 width="500px" height="500px" viewBox="0 0 500 500" enable-background="new 0 0 500 500" xml:space="preserve">
  <metadata>
    <?xpacket begin="﻿" id="W5M0MpCehiHzreSzNTczkc9d"?>
    <x:xmpmeta xmlns:x="adobe:ns:meta/" x:xmptk="Adobe XMP Core 5.6-c011 79.156380, 2014/06/19-23:40:37        ">
     <rdf:RDF xmlns:rdf="http://www.w3.org/1999/02/22-rdf-syntax-ns#">
      <rdf:Description rdf:about=""
        xmlns:xmpMM="http://ns.adobe.com/xap/1.0/mm/"
        xmlns:stEvt="http://ns.adobe.com/xap/1.0/sType/ResourceEvent#"
        xmlns:xmp="http://ns.adobe.com/xap/1.0/"
        xmlns:xmpRights="http://ns.adobe.com/xap/1.0/rights/"
        xmlns:dc="http://purl.org/dc/elements/1.1/"
       xmpMM:DocumentID="xmp.did:d11c6e9da72dc63d5c817604463ade62"
       xmpMM:OriginalDocumentID="xmp.did:d11c6e9da72dc63d5c817604463ade62"
       xmpMM:InstanceID="xmp.iid:d11c6e9da72dc63d5c817604463ade62"
       xmp:ModifyDate="2015-04-21T18:29:13+02:00"
       xmp:MetadataDate="2015-04-21T18:29:13+02:00"
       xmpRights:Marked="True"
       xmpRights:WebStatement="http://www.adobe.com/legal/general-terms.html">
       <xmpMM:History>
        <rdf:Seq>
         <rdf:li
          stEvt:action="saved"
          stEvt:instanceID="xmp.iid:d11c6e9da72dc63d5c817604463ade62"
          stEvt:when="2015-04-21T18:29:13+02:00"/>
        </rdf:Seq>
       </xmpMM:History>
       <xmpRights:UsageTerms>
        <rdf:Alt>
         <rdf:li xml:lang="x-default">This work is licensed under the Adobe General Terms of Use http://www.adobe.com/legal/general-terms.html.</rdf:li>
        </rdf:Alt>
       </xmpRights:UsageTerms>
       <dc:publisher>
        <rdf:Bag>
         <rdf:li>Adobe Systems Incorporated</rdf:li>
        </rdf:Bag>
       </dc:publisher>
      </rdf:Description>
     </rdf:RDF>
    </x:xmpmeta>
    <?xpacket end="r"?>
  </metadata>
<g>
	<g>
		<circle fill="#F39943" cx="250" cy="250" r="250"/>
	</g>
	<g>
		<path fill="#CB7A2D" d="M298.1,495.3c84.8-16.5,154.3-76,184.9-154.9L276.5,133.8c0,0-25.9,2.1-35.1,11.7
			c-15.6,16.2-34.5,42.8-48.8,64.2l9.7,9.7l-54.7,0.3l-11.7,7.8l23.4,23.4l3.9,50.8l3.9,31.3l-4.4,26.9L298.1,495.3z"/>
	</g>
	<g>
		<path fill="#EDE3D0" d="M360.4,216.6H141.9c-3.5,0-6.2,2.8-6.2,6.2c0,3.5,2.8,6.2,6.2,6.2h11.9l7.2,128.5c0.2,2.8,2.5,5,5.3,5H336
			c2.8,0,5.1-2.2,5.3-5l7.2-128.5h11.9c3.5,0,6.2-2.8,6.2-6.2C366.6,219.4,363.9,216.6,360.4,216.6z"/>
	</g>
	<g>
		<path fill="#0A79B3" d="M214.9,306.3h30.9v-33.8h-30.9V306.3z M214.9,352h30.9v-35.1h-30.9V352z M166.3,261.9h38.1v-32.8h-39.9
			L166.3,261.9z M214.9,261.9h30.9v-32.8h-30.9V261.9z M171.3,352h33v-35.1h-35L171.3,352z M168.8,306.3h35.6v-33.8h-37.5
			L168.8,306.3z M298,306.3h35.6l1.9-33.8H298L298,306.3L298,306.3z M298,352h33l2-35.1h-35C298,316.9,298,352,298,352z M256.4,352
			h30.9v-35.1h-30.9V352z M298,229.1v32.8h38l1.8-32.8H298z M256.4,306.3h30.9v-33.8h-30.9V306.3z M256.4,261.9h30.9v-32.8h-30.9
			V261.9z"/>
	</g>
	<g>
		<path fill="#FFF6E4" d="M191.7,204.2c-1.6,2.1-1.2,5,0.8,6.7c0.9,0.7,1.9,1,2.9,1c1.4,0,2.8-0.6,3.7-1.8l45.2-58.8
			c0.5-0.6,0.7-1.3,0.8-1.9h-11.2L191.7,204.2z M310.8,204.3L270,149.4h-11.3c0.2,0.5,0.4,1,0.7,1.5l43.9,59.2
			c0.9,1.2,2.3,1.9,3.7,1.9c1,0,2-0.3,2.8-1C311.9,209.4,312.3,206.4,310.8,204.3z"/>
	</g>
	<g>
		<path fill="#0A79B3" d="M273.1,133.7h-39.9c-4,0-7.3,3.5-7.3,7.8c0,4.3,3.3,7.8,7.3,7.8h39.9c4,0,7.3-3.5,7.3-7.8
			C280.4,137.2,277.1,133.7,273.1,133.7z"/>
	</g>
</g>
</svg>
